<svg width="2198" height="2391" viewBox="0 0 2198 2391" fill="none" xmlns="http://www.w3.org/2000/svg">
<path fill-rule="evenodd" clip-rule="evenodd" d="M1211.74 0.811947C1202.19 3.21795 1193.89 9.82896 1188.94 18.96L1185.51 25.2859L1185.01 71.2859C1184.73 96.5859 1184.37 181.181 1184.2 259.276C1183.97 368.232 1183.62 401.428 1182.7 401.967C1182.04 402.353 1087.68 456.85 973.005 523.072L764.505 643.476L764.005 882.145L763.505 1120.81L562.005 1237.15L360.505 1353.49V1616.77V1880.04L586.505 2010.61C722.211 2089.02 813.504 2141.19 815.005 2141.18C816.504 2141.18 908 2088.9 1043.51 2010.6L1269.51 1880.02L1270.01 1641.37L1270.51 1402.72L1472.01 1286.37L1673.51 1170.03L1674.01 928.693L1674.51 687.354L1835.01 592.701C1944.87 527.911 1996.94 496.666 2000.07 493.667C2002.58 491.257 2005.93 486.586 2007.53 483.286C2010.05 478.057 2010.43 476.124 2010.46 468.238C2010.5 459.732 2010.28 458.726 2006.69 451.474C1996.73 431.298 1976.52 422.795 1958.45 431.174C1955.73 432.435 1882.04 475.613 1794.7 527.126C1707.36 578.639 1635.51 620.786 1635.02 620.786C1633.98 620.786 1265.08 408.018 1263.28 406.383C1262.33 405.516 1261.92 363.513 1261.44 217.278C1261.09 111.288 1260.43 27.7589 1259.92 25.7859C1257.47 16.2619 1249.27 7.00595 1239.43 2.64395C1233.86 0.176948 1218.34 -0.850053 1211.74 0.811947ZM171.74 580.128L0 679.285L0.252991 877.73L0.505005 1076.17L171.505 1174.95C265.555 1229.27 342.955 1273.72 343.505 1273.71C344.055 1273.71 421.455 1229.26 515.505 1174.93L686.505 1076.14L686.757 877.714L687.008 679.286L517.355 581.286C424.046 527.386 346.752 482.765 345.59 482.128C343.713 481.099 324.476 491.942 171.74 580.128ZM1399.61 595.054L1578.51 698.323V906.789V1115.25L1398.75 1219.04L1219 1322.82L1039.25 1219.02L859.505 1115.23V906.796V698.364L1038.01 595.169C1136.18 538.412 1217.45 491.932 1218.61 491.88C1219.77 491.828 1301.22 538.257 1399.61 595.054ZM483.505 642.541L616.505 719.382L616.758 877.463L617.011 1035.54L480.393 1114.41C405.252 1157.79 343.565 1193.23 343.31 1193.17C343.055 1193.11 281.456 1157.61 206.423 1114.29L69.999 1035.52L70.252 877.458L70.505 719.393L206.909 640.648L343.312 561.902L346.909 563.801C348.887 564.846 410.355 600.279 483.505 642.541ZM1043.51 652.667C1039.4 654.554 914.601 728.537 909.878 731.885C904.07 736.002 903.993 736.673 904.128 782.437C904.196 805.454 904.534 841.917 904.878 863.465C905.478 900.959 905.594 902.763 907.567 905.403C911.789 911.054 914.521 912.286 922.828 912.286C931.22 912.286 934.854 910.818 938.505 905.952C940.47 903.333 940.5 901.966 940.211 827.786L939.918 752.286L1000.04 716.786C1039.71 693.363 1060.99 680.234 1062.58 678.195C1066.45 673.253 1066.7 667.357 1063.33 660.786C1061.12 656.483 1059.53 654.796 1056.04 653.036C1050.67 650.326 1048.73 650.269 1043.51 652.667ZM995.005 1304.61L1174.51 1408.32V1616.8V1825.28L994.755 1929.06L815.006 2032.84L635.255 1929.05L455.505 1825.26V1616.8V1408.34L635.005 1304.62C733.73 1247.58 814.73 1200.91 815.005 1200.9C815.28 1200.9 896.28 1247.57 995.005 1304.61ZM1515.78 1372.17L1344.05 1471.29L1344.28 1669.64L1344.51 1867.99L1515.01 1966.46C1608.78 2020.62 1685.99 2065.14 1686.58 2065.4C1687.17 2065.65 1764.8 2021.32 1859.08 1966.88L2030.51 1867.9L2030.72 1669.59L2030.93 1471.29L1863.22 1374.52C1770.97 1321.29 1693.71 1276.69 1691.51 1275.4L1687.51 1273.05L1515.78 1372.17ZM1824.85 1432.79L1960.94 1511.29L1960.72 1669.66L1960.51 1828.04L1824.01 1906.84L1687.51 1985.65L1682.51 1982.77C1679.76 1981.19 1618.33 1945.71 1546.01 1903.93L1414.51 1827.97L1414.3 1669.63L1414.08 1511.29L1550.3 1432.61C1625.21 1389.35 1687.01 1354.02 1687.63 1354.11C1688.24 1354.21 1749.99 1389.61 1824.85 1432.79ZM1098.77 1621.85C1096.48 1623.05 1094.24 1625.35 1093.02 1627.76C1091.05 1631.61 1091.01 1633.54 1091.01 1705.55V1779.4L1029.87 1814.84C983.583 1841.68 968.284 1851.01 966.874 1853.29C964.212 1857.57 963.514 1862.52 964.984 1866.7C968.024 1875.34 974.874 1880.47 982.077 1879.5C984.479 1879.18 1008.51 1865.8 1052.61 1840.24C1089.4 1818.91 1120.36 1800.75 1121.4 1799.88C1122.44 1799 1124.12 1796.44 1125.13 1794.19C1126.85 1790.34 1126.96 1785.48 1126.99 1710.93C1127.03 1633.37 1126.99 1631.67 1125 1627.78C1122.23 1622.34 1116.99 1619.77 1108.8 1619.83C1104.53 1619.86 1101.3 1620.51 1098.77 1621.85ZM2135.5 1867.9C2114.32 1870.96 2121 1877.24 2113 1870C2110.76 1873.07 2105.71 1867.77 2110.98 1872.55C2113.72 1875.03 2115.71 1877.46 2115.41 1877.95C2115.1 1878.43 2116.19 1881.58 2113 1883.19C2109.81 1884.8 2072.23 1909.38 2030.51 1933.5C1988.78 1957.62 1923.17 1993.35 1885.5 2015C1847.83 2036.65 1815.42 2054.51 1813.5 2056C1811.58 2057.49 1783.29 2074.62 1749 2094.5L1684.5 2133L1587.5 2079L1495 2027.5C1393.01 1969.46 1311.1 1925.5 1310.06 1925.5C1307.32 1925.5 1003.26 2101.67 1001.5 2104.36C1005.14 2106 1009.6 2100.62 1011.5 2104.36C1014.09 2109.44 1001.91 2114.59 1006 2112.5C1007.65 2111.66 1076.32 2070.7 1158 2022C1239.68 1973.3 1308.96 1930.52 1310.06 1930.5C1311.16 1930.48 1398.04 1979.27 1499.5 2037C1611.21 2100.56 1684.63 2137.27 1686.58 2137.5C1689.35 2137.82 1714.49 2124.95 1897 2019C2013.77 1951.21 2109.33 1893.26 2110.98 1891.79C2114.46 1888.68 2122.53 1891.79 2123.86 1891.79C2124.36 1891.79 2125.08 1893.92 2125.45 1896.54C2125.82 1899.15 2126.36 1902.1 2126.65 1903.09C2127.3 1905.34 2131.63 1907.09 2133.68 1905.95C2134.52 1905.48 2143.02 1895.24 2152.57 1883.19C2169.95 1861.28 2171.83 1858.01 2168.81 1854.99C2167.06 1853.24 2163.71 1863.82 2135.5 1867.9ZM357.328 2083.41C357.682 2109.19 358.464 2184.74 359.065 2251.29C359.667 2317.84 360.462 2376.38 360.832 2381.38L361.505 2390.47L512.321 2301.26C595.27 2252.2 663.542 2211.65 664.036 2211.15C664.568 2210.62 656.882 2205.72 645.22 2199.14C634.377 2193.03 566.105 2154.52 493.505 2113.57C420.905 2072.61 360.42 2038.53 359.094 2037.82L356.683 2036.54L357.328 2083.41Z" fill="url(#paint0_linear_1_20)"/>
<path fill-rule="evenodd" clip-rule="evenodd" d="M1211.74 0.811947C1202.19 3.21795 1193.89 9.82896 1188.94 18.96L1185.51 25.2859L1185.01 71.2859C1184.73 96.5859 1184.37 181.181 1184.2 259.276C1183.97 368.232 1183.62 401.428 1182.7 401.967C1182.04 402.353 1087.68 456.85 973.005 523.072L764.505 643.476L764.005 882.145L763.505 1120.81L562.005 1237.15L360.505 1353.49V1616.77V1880.04L586.505 2010.61C722.211 2089.02 813.504 2141.19 815.005 2141.18C816.504 2141.18 908 2088.9 1043.51 2010.6L1269.51 1880.02L1270.01 1641.37L1270.51 1402.72L1472.01 1286.37L1673.51 1170.03L1674.01 928.693L1674.51 687.354L1835.01 592.701C1944.87 527.911 1996.94 496.666 2000.07 493.667C2002.58 491.257 2005.93 486.586 2007.53 483.286C2010.05 478.057 2010.43 476.124 2010.46 468.238C2010.5 459.732 2010.28 458.726 2006.69 451.474C1996.73 431.298 1976.52 422.795 1958.45 431.174C1955.73 432.435 1882.04 475.613 1794.7 527.126C1707.36 578.639 1635.51 620.786 1635.02 620.786C1633.98 620.786 1265.08 408.018 1263.28 406.383C1262.33 405.516 1261.92 363.513 1261.44 217.278C1261.09 111.288 1260.43 27.7589 1259.92 25.7859C1257.47 16.2619 1249.27 7.00595 1239.43 2.64395C1233.86 0.176948 1218.34 -0.850053 1211.74 0.811947ZM171.74 580.128L0 679.285L0.252991 877.73L0.505005 1076.17L171.505 1174.95C265.555 1229.27 342.955 1273.72 343.505 1273.71C344.055 1273.71 421.455 1229.26 515.505 1174.93L686.505 1076.14L686.757 877.714L687.008 679.286L517.355 581.286C424.046 527.386 346.752 482.765 345.59 482.128C343.713 481.099 324.476 491.942 171.74 580.128ZM1399.61 595.054L1578.51 698.323V906.789V1115.25L1398.75 1219.04L1219 1322.82L1039.25 1219.02L859.505 1115.23V906.796V698.364L1038.01 595.169C1136.18 538.412 1217.45 491.932 1218.61 491.88C1219.77 491.828 1301.22 538.257 1399.61 595.054ZM483.505 642.541L616.505 719.382L616.758 877.463L617.011 1035.54L480.393 1114.41C405.252 1157.79 343.565 1193.23 343.31 1193.17C343.055 1193.11 281.456 1157.61 206.423 1114.29L69.999 1035.52L70.252 877.458L70.505 719.393L206.909 640.648L343.312 561.902L346.909 563.801C348.887 564.846 410.355 600.279 483.505 642.541ZM1043.51 652.667C1039.4 654.554 914.601 728.537 909.878 731.885C904.07 736.002 903.993 736.673 904.128 782.437C904.196 805.454 904.534 841.917 904.878 863.465C905.478 900.959 905.594 902.763 907.567 905.403C911.789 911.054 914.521 912.286 922.828 912.286C931.22 912.286 934.854 910.818 938.505 905.952C940.47 903.333 940.5 901.966 940.211 827.786L939.918 752.286L1000.04 716.786C1039.71 693.363 1060.99 680.234 1062.58 678.195C1066.45 673.253 1066.7 667.357 1063.33 660.786C1061.12 656.483 1059.53 654.796 1056.04 653.036C1050.67 650.326 1048.73 650.269 1043.51 652.667ZM995.005 1304.61L1174.51 1408.32V1616.8V1825.28L994.755 1929.06L815.006 2032.84L635.255 1929.05L455.505 1825.26V1616.8V1408.34L635.005 1304.62C733.73 1247.58 814.73 1200.91 815.005 1200.9C815.28 1200.9 896.28 1247.57 995.005 1304.61ZM1515.78 1372.17L1344.05 1471.29L1344.28 1669.64L1344.51 1867.99L1515.01 1966.46C1608.78 2020.62 1685.99 2065.14 1686.58 2065.4C1687.17 2065.65 1764.8 2021.32 1859.08 1966.88L2030.51 1867.9L2030.72 1669.59L2030.93 1471.29L1863.22 1374.52C1770.97 1321.29 1693.71 1276.69 1691.51 1275.4L1687.51 1273.05L1515.78 1372.17ZM1824.85 1432.79L1960.94 1511.29L1960.72 1669.66L1960.51 1828.04L1824.01 1906.84L1687.51 1985.65L1682.51 1982.77C1679.76 1981.19 1618.33 1945.71 1546.01 1903.93L1414.51 1827.97L1414.3 1669.63L1414.08 1511.29L1550.3 1432.61C1625.21 1389.35 1687.01 1354.02 1687.63 1354.11C1688.24 1354.21 1749.99 1389.61 1824.85 1432.79ZM1098.77 1621.85C1096.48 1623.05 1094.24 1625.35 1093.02 1627.76C1091.05 1631.61 1091.01 1633.54 1091.01 1705.55V1779.4L1029.87 1814.84C983.583 1841.68 968.284 1851.01 966.874 1853.29C964.212 1857.57 963.514 1862.52 964.984 1866.7C968.024 1875.34 974.874 1880.47 982.077 1879.5C984.479 1879.18 1008.51 1865.8 1052.61 1840.24C1089.4 1818.91 1120.36 1800.75 1121.4 1799.88C1122.44 1799 1124.12 1796.44 1125.13 1794.19C1126.85 1790.34 1126.96 1785.48 1126.99 1710.93C1127.03 1633.37 1126.99 1631.67 1125 1627.78C1122.23 1622.34 1116.99 1619.77 1108.8 1619.83C1104.53 1619.86 1101.3 1620.51 1098.77 1621.85ZM2135.5 1867.9C2114.32 1870.96 2121 1877.24 2113 1870C2110.76 1873.07 2105.71 1867.77 2110.98 1872.55C2113.72 1875.03 2115.71 1877.46 2115.41 1877.95C2115.1 1878.43 2116.19 1881.58 2113 1883.19C2109.81 1884.8 2072.23 1909.38 2030.51 1933.5C1988.78 1957.62 1923.17 1993.35 1885.5 2015C1847.83 2036.65 1815.42 2054.51 1813.5 2056C1811.58 2057.49 1783.29 2074.62 1749 2094.5L1684.5 2133L1587.5 2079L1495 2027.5C1393.01 1969.46 1311.1 1925.5 1310.06 1925.5C1307.32 1925.5 1003.26 2101.67 1001.5 2104.36C1005.14 2106 1009.6 2100.62 1011.5 2104.36C1014.09 2109.44 1001.91 2114.59 1006 2112.5C1007.65 2111.66 1076.32 2070.7 1158 2022C1239.68 1973.3 1308.96 1930.52 1310.06 1930.5C1311.16 1930.48 1398.04 1979.27 1499.5 2037C1611.21 2100.56 1684.63 2137.27 1686.58 2137.5C1689.35 2137.82 1714.49 2124.95 1897 2019C2013.77 1951.21 2109.33 1893.26 2110.98 1891.79C2114.46 1888.68 2122.53 1891.79 2123.86 1891.79C2124.36 1891.79 2125.08 1893.92 2125.45 1896.54C2125.82 1899.15 2126.36 1902.1 2126.65 1903.09C2127.3 1905.34 2131.63 1907.09 2133.68 1905.95C2134.52 1905.48 2143.02 1895.24 2152.57 1883.19C2169.95 1861.28 2171.83 1858.01 2168.81 1854.99C2167.06 1853.24 2163.71 1863.82 2135.5 1867.9ZM357.328 2083.41C357.682 2109.19 358.464 2184.74 359.065 2251.29C359.667 2317.84 360.462 2376.38 360.832 2381.38L361.505 2390.47L512.321 2301.26C595.27 2252.2 663.542 2211.65 664.036 2211.15C664.568 2210.62 656.882 2205.72 645.22 2199.14C634.377 2193.03 566.105 2154.52 493.505 2113.57C420.905 2072.61 360.42 2038.53 359.094 2037.82L356.683 2036.54L357.328 2083.41Z" fill="url(#paint1_linear_1_20)"/>
<line x1="1000.69" y1="2110.41" x2="1314.69" y2="1924.41" stroke="white" stroke-width="13"/>
<path d="M1688.5 2137L1308 1924.5" stroke="white" stroke-width="13"/>
<path d="M1682 2137L2129 1879" stroke="white" stroke-width="13"/>
<path d="M2165.65 1852.83C2170.86 1852.01 2174.52 1857.83 2171.52 1862.17L2136.85 1912.39C2133.91 1916.65 2127.32 1915.44 2126.09 1910.41L2121.28 1890.79C2120.97 1889.52 2120.25 1888.39 2119.24 1887.57L2101.43 1873.08C2097.41 1869.81 2099.16 1863.31 2104.29 1862.5L2165.65 1852.83Z" fill="white"/>
<defs>
<linearGradient id="paint0_linear_1_20" x1="2.33664e-06" y1="679.5" x2="1933.5" y2="2050" gradientUnits="userSpaceOnUse">
<stop stop-color="#F6DDB3"/>
<stop offset="0.261891" stop-color="#FFDA72"/>
<stop offset="0.486578" stop-color="#FFD150"/>
<stop offset="1" stop-color="#E59D24"/>
</linearGradient>
<linearGradient id="paint1_linear_1_20" x1="3921" y1="4873.5" x2="1084.99" y2="2390.47" gradientUnits="userSpaceOnUse">
<stop/>
<stop offset="1" stop-opacity="0"/>
</linearGradient>
</defs>
</svg>
