<svg width="18" height="16" viewBox="0 0 18 16" fill="none" xmlns="http://www.w3.org/2000/svg">
<path fill-rule="evenodd" clip-rule="evenodd" d="M7.01299 8C9.27394 8 11.1039 6.21071 11.1039 4C11.1039 1.78929 9.27394 0 7.01299 0C4.75203 0 2.92208 1.78929 2.92208 4C2.92208 6.21071 4.75203 8 7.01299 8ZM9.81818 9.14286H9.51502C8.75527 9.5 7.91152 9.71429 7.01299 9.71429C6.11445 9.71429 5.27435 9.5 4.51096 9.14286H4.20779C1.88474 9.14286 0 10.9857 0 13.2571V14.2857C0 15.2321 0.785308 16 1.75325 16H12.2727C13.2407 16 14.026 15.2321 14.026 14.2857V13.2571C14.026 10.9857 12.1412 9.14286 9.81818 9.14286ZM13.0908 8.80001C13.0908 8.35818 13.449 8.00001 13.8908 8.00001H14.7274V7.2182C14.7274 6.76633 15.0937 6.40002 15.5456 6.40002C15.9975 6.40002 16.3638 6.76633 16.3638 7.2182V8.00001H17.1999C17.6417 8.00001 17.9999 8.35818 17.9999 8.80001C17.9999 9.24183 17.6417 9.60001 17.1999 9.60001H16.3638V10.3818C16.3638 10.8337 15.9975 11.2 15.5456 11.2C15.0937 11.2 14.7274 10.8337 14.7274 10.3818V9.60001H13.8908C13.449 9.60001 13.0908 9.24183 13.0908 8.80001Z" fill="url(#paint0_linear_749_11)"/>
<defs>
<linearGradient id="paint0_linear_749_11" x1="18" y1="16" x2="18" y2="-83" gradientUnits="userSpaceOnUse">
<stop stop-color="#9E2FFF"/>
<stop offset="1" stop-color="#FF9E2F"/>
</linearGradient>
</defs>
</svg>
