<svg width="20" height="18" viewBox="0 0 20 18" fill="none" xmlns="http://www.w3.org/2000/svg">
<path fill-rule="evenodd" clip-rule="evenodd" d="M7.79221 8.88889C10.3044 8.88889 12.3377 6.90079 12.3377 4.44444C12.3377 1.9881 10.3044 0 7.79221 0C5.28003 0 3.24675 1.9881 3.24675 4.44444C3.24675 6.90079 5.28003 8.88889 7.79221 8.88889ZM10.9091 10.1587H10.5722C9.72808 10.5556 8.79058 10.7937 7.79221 10.7937C6.79383 10.7937 5.86039 10.5556 5.01218 10.1587H4.67532C2.09416 10.1587 0 12.2064 0 14.7302V15.873C0 16.9246 0.872565 17.7778 1.94805 17.7778H13.6364C14.7119 17.7778 15.5844 16.9246 15.5844 15.873V14.7302C15.5844 12.2064 13.4903 10.1587 10.9091 10.1587ZM14.5454 9.77778C14.5454 9.28686 14.9433 8.88889 15.4342 8.88889H16.3638V8.02023C16.3638 7.51815 16.7708 7.11114 17.2729 7.11114C17.775 7.11114 18.182 7.51815 18.182 8.02023V8.88889H19.111C19.6019 8.88889 19.9999 9.28686 19.9999 9.77778C19.9999 10.2687 19.6019 10.6667 19.111 10.6667H18.182V11.5354C18.182 12.0375 17.775 12.4445 17.2729 12.4445C16.7708 12.4445 16.3638 12.0375 16.3638 11.5354V10.6667H15.4342C14.9433 10.6667 14.5454 10.2687 14.5454 9.77778Z" fill="black"/>
</svg>
