<svg width="77" height="87" viewBox="0 0 77 87" fill="none" xmlns="http://www.w3.org/2000/svg">
<path d="M34.5515 1.20192C37.0267 -0.227139 40.0763 -0.227138 42.5515 1.20192L73 18.7814C75.4752 20.2104 77 22.8514 77 25.7096V60.8684C77 63.7266 75.4752 66.3676 73 67.7966L42.5515 85.3761C40.0763 86.8051 37.0267 86.8051 34.5515 85.3761L4.10303 67.7966C1.62782 66.3676 0.103027 63.7266 0.103027 60.8684V25.7096C0.103027 22.8514 1.62782 20.2104 4.10303 18.7814L34.5515 1.20192Z" fill="url(#paint0_linear_71_90)" fill-opacity="0.3"/>
<path d="M53.749 43.2885L31.5508 56.1047L31.5508 30.4724L53.749 43.2885Z" fill="#D9D9D9"/>
<defs>
<linearGradient id="paint0_linear_71_90" x1="77.7969" y1="86.8985" x2="-0.266828" y2="86.4695" gradientUnits="userSpaceOnUse">
<stop stop-color="#DC2DF5"/>
<stop offset="1" stop-color="#FBDB47"/>
</linearGradient>
</defs>
</svg>
