<svg width="20" height="23" viewBox="0 0 20 23" fill="none" xmlns="http://www.w3.org/2000/svg">
<path fill-rule="evenodd" clip-rule="evenodd" d="M10.5 2.13397L17.5 6.17543C17.8094 6.35406 18 6.68419 18 7.04145V15.1244C18 15.4816 17.8094 15.8117 17.5 15.9904L15.5864 17.0952C15.1377 15.0518 13.3167 13.5225 11.1386 13.5225H8.53644C6.41726 13.5225 4.63618 14.9701 4.12808 16.9304L2.5 15.9904C2.1906 15.8117 2 15.4816 2 15.1244V7.04145C2 6.68419 2.1906 6.35406 2.5 6.17543L9.5 2.13397C9.8094 1.95534 10.1906 1.95534 10.5 2.13397ZM15.4755 19.4686L18.5 17.7224C19.4282 17.1865 20 16.1961 20 15.1244V7.04145C20 5.96965 19.4282 4.97927 18.5 4.44337L11.5 0.401923C10.5718 -0.133975 9.4282 -0.133974 8.5 0.401924L1.5 4.44338C0.571797 4.97927 0 5.96966 0 7.04145V15.1244C0 16.1962 0.571798 17.1865 1.5 17.7224L4.1335 19.2429L6.0002 20.3206L8.5 21.7639C9.4282 22.2998 10.5718 22.2998 11.5 21.7639L13.9536 20.3473C13.9692 20.3384 13.9847 20.3296 14.0002 20.3206L15.4754 19.4689C15.4755 19.4688 15.4755 19.4687 15.4755 19.4686ZM13.4153 8.64338C13.4153 10.6194 11.8134 12.2213 9.83736 12.2213C7.86131 12.2213 6.25941 10.6194 6.25941 8.64338C6.25941 6.66734 7.86131 5.06544 9.83736 5.06544C11.8134 5.06544 13.4153 6.66734 13.4153 8.64338Z" fill="url(#paint0_linear_978_18)"/>
<defs>
<linearGradient id="paint0_linear_978_18" x1="20" y1="22.1658" x2="0" y2="22.1658" gradientUnits="userSpaceOnUse">
<stop stop-color="#9E2FFF"/>
<stop offset="1" stop-color="#FF9E2F"/>
</linearGradient>
</defs>
</svg>
