<svg width="20" height="24" viewBox="0 0 20 24" fill="none" xmlns="http://www.w3.org/2000/svg">
<path fill-rule="evenodd" clip-rule="evenodd" d="M10.5 3.12525L17.5 7.1667C17.8094 7.34533 18 7.67546 18 8.03272V16.1156C18 16.4729 17.8094 16.803 17.5 16.9817L15.5864 18.0865C15.1377 16.043 13.3167 14.5138 11.1386 14.5138H8.53644C6.41726 14.5138 4.63618 15.9613 4.12808 17.9216L2.5 16.9817C2.1906 16.803 2 16.4729 2 16.1156V8.03272C2 7.67546 2.1906 7.34533 2.5 7.1667L9.5 3.12525C9.8094 2.94661 10.1906 2.94661 10.5 3.12525ZM15.4755 20.4599L18.5 18.7137C19.4282 18.1778 20 17.1874 20 16.1156V8.03272C20 6.96093 19.4282 5.97054 18.5 5.43465L11.5 1.3932C10.5718 0.857297 9.4282 0.857298 8.5 1.3932L1.5 5.43465C0.571797 5.97055 0 6.96093 0 8.03272V16.1156C0 17.1874 0.571798 18.1778 1.5 18.7137L4.1335 20.2341L6.0002 21.3119L8.5 22.7552C9.4282 23.2911 10.5718 23.2911 11.5 22.7552L13.9536 21.3386C13.9692 21.3297 13.9847 21.3208 14.0002 21.3119L15.4754 20.4601C15.4755 20.4601 15.4755 20.46 15.4755 20.4599ZM13.4153 9.63465C13.4153 11.6107 11.8134 13.2126 9.83735 13.2126C7.86131 13.2126 6.25941 11.6107 6.25941 9.63465C6.25941 7.65861 7.86131 6.05671 9.83735 6.05671C11.8134 6.05671 13.4153 7.65861 13.4153 9.63465Z" fill="black"/>
</svg>
