<svg width="25" height="25" viewBox="0 0 25 25" fill="none" xmlns="http://www.w3.org/2000/svg">
<path fill-rule="evenodd" clip-rule="evenodd" d="M12.5 23.75C18.7131 23.75 23.75 18.7131 23.75 12.5C23.75 6.28687 18.7131 1.25 12.5 1.25C6.28687 1.25 1.25 6.28687 1.25 12.5C1.25 18.7131 6.28687 23.75 12.5 23.75ZM12.5 25C19.4037 25 25 19.4037 25 12.5C25 5.59625 19.4037 0 12.5 0C5.59625 0 0 5.59625 0 12.5C0 19.4037 5.59625 25 12.5 25Z" fill="url(#paint0_linear_443_812)"/>
<path d="M5 19.7686C5 19.123 5.4825 18.5774 6.125 18.5061C10.9469 17.9724 14.075 18.0205 18.8862 18.518C19.1265 18.5432 19.3542 18.6379 19.5416 18.7904C19.7289 18.9429 19.8678 19.1467 19.9412 19.3768C20.0147 19.607 20.0195 19.8535 19.9551 20.0863C19.8908 20.3192 19.76 20.5282 19.5788 20.688C13.9006 25.6374 10.6556 25.5692 5.4 20.693C5.14375 20.4555 5 20.118 5 19.7692V19.7686Z" fill="url(#paint1_linear_443_812)"/>
<path fill-rule="evenodd" clip-rule="evenodd" d="M18.8219 19.1395C14.0488 18.6458 10.9656 18.5995 6.19313 19.1277C6.03603 19.146 5.8912 19.2216 5.78638 19.34C5.68155 19.4584 5.62409 19.6114 5.625 19.7695C5.625 19.9483 5.69938 20.1177 5.825 20.2352C8.43 22.6514 10.4038 23.7433 12.3331 23.7502C14.2694 23.757 16.3494 22.6739 19.1681 20.2177C19.2577 20.138 19.3221 20.034 19.3537 19.9183C19.3852 19.8026 19.3825 19.6803 19.3458 19.5662C19.3092 19.452 19.2401 19.351 19.1471 19.2754C19.0541 19.1998 18.9411 19.1528 18.8219 19.1402V19.1395ZM6.05625 17.8852C10.9288 17.3458 14.1025 17.3945 18.9513 17.8964C19.3127 17.9341 19.6553 18.0764 19.9371 18.3059C20.2189 18.5353 20.4277 18.8419 20.538 19.1882C20.6482 19.5345 20.6551 19.9054 20.5577 20.2555C20.4604 20.6057 20.2631 20.9198 19.99 21.1595C17.1306 23.652 14.7494 25.0095 12.3294 25.0002C9.9025 24.9914 7.62625 23.6108 4.97563 21.1514C4.78585 20.9746 4.63456 20.7606 4.53122 20.5228C4.42787 20.2849 4.3747 20.0283 4.375 19.7689C4.37409 19.3029 4.54513 18.853 4.85536 18.5053C5.16558 18.1576 5.59318 17.9366 6.05625 17.8845V17.8852Z" fill="url(#paint2_linear_443_812)"/>
<path d="M17.5 10C17.5 11.3261 16.9732 12.5979 16.0355 13.5355C15.0979 14.4732 13.8261 15 12.5 15C11.1739 15 9.90215 14.4732 8.96447 13.5355C8.02678 12.5979 7.5 11.3261 7.5 10C7.5 8.67392 8.02678 7.40215 8.96447 6.46447C9.90215 5.52678 11.1739 5 12.5 5C13.8261 5 15.0979 5.52678 16.0355 6.46447C16.9732 7.40215 17.5 8.67392 17.5 10Z" fill="url(#paint3_linear_443_812)"/>
<path fill-rule="evenodd" clip-rule="evenodd" d="M12.5 13.75C13.4946 13.75 14.4484 13.3549 15.1517 12.6517C15.8549 11.9484 16.25 10.9946 16.25 10C16.25 9.00544 15.8549 8.05161 15.1517 7.34835C14.4484 6.64509 13.4946 6.25 12.5 6.25C11.5054 6.25 10.5516 6.64509 9.84835 7.34835C9.14509 8.05161 8.75 9.00544 8.75 10C8.75 10.9946 9.14509 11.9484 9.84835 12.6517C10.5516 13.3549 11.5054 13.75 12.5 13.75ZM12.5 15C13.8261 15 15.0979 14.4732 16.0355 13.5355C16.9732 12.5979 17.5 11.3261 17.5 10C17.5 8.67392 16.9732 7.40215 16.0355 6.46447C15.0979 5.52678 13.8261 5 12.5 5C11.1739 5 9.90215 5.52678 8.96447 6.46447C8.02678 7.40215 7.5 8.67392 7.5 10C7.5 11.3261 8.02678 12.5979 8.96447 13.5355C9.90215 14.4732 11.1739 15 12.5 15Z" fill="url(#paint4_linear_443_812)"/>
<defs>
<linearGradient id="paint0_linear_443_812" x1="25" y1="25" x2="0" y2="25" gradientUnits="userSpaceOnUse">
<stop stop-color="#9E2FFF"/>
<stop offset="1" stop-color="#FF9E2F"/>
</linearGradient>
<linearGradient id="paint1_linear_443_812" x1="20.0001" y1="24.3751" x2="5" y2="24.3751" gradientUnits="userSpaceOnUse">
<stop stop-color="#9E2FFF"/>
<stop offset="1" stop-color="#FF9E2F"/>
</linearGradient>
<linearGradient id="paint2_linear_443_812" x1="20.626" y1="25.0002" x2="4.375" y2="25.0002" gradientUnits="userSpaceOnUse">
<stop stop-color="#9E2FFF"/>
<stop offset="1" stop-color="#FF9E2F"/>
</linearGradient>
<linearGradient id="paint3_linear_443_812" x1="17.5" y1="15" x2="7.5" y2="15" gradientUnits="userSpaceOnUse">
<stop stop-color="#9E2FFF"/>
<stop offset="1" stop-color="#FF9E2F"/>
</linearGradient>
<linearGradient id="paint4_linear_443_812" x1="17.5" y1="15" x2="7.5" y2="15" gradientUnits="userSpaceOnUse">
<stop stop-color="#9E2FFF"/>
<stop offset="1" stop-color="#FF9E2F"/>
</linearGradient>
</defs>
</svg>
