<svg width="20" height="20" viewBox="0 0 20 20" fill="none" xmlns="http://www.w3.org/2000/svg">
<path d="M6.95957 2.66041L9.35136 0.268617C9.52341 0.0966215 9.75673 0 10 0C10.2433 0 10.4766 0.0966215 10.6486 0.268617L13.0404 2.66041H16.4221C16.6655 2.66041 16.8988 2.75707 17.0709 2.92912C17.2429 3.10118 17.3396 3.33453 17.3396 3.57786V6.95957L19.7314 9.35136C19.9034 9.52341 20 9.75673 20 10C20 10.2433 19.9034 10.4766 19.7314 10.6486L17.3396 13.0404V16.4221C17.3396 16.6655 17.2429 16.8988 17.0709 17.0709C16.8988 17.2429 16.6655 17.3396 16.4221 17.3396H13.0404L10.6486 19.7314C10.4766 19.9034 10.2433 20 10 20C9.75673 20 9.52341 19.9034 9.35136 19.7314L6.95957 17.3396H3.57786C3.33453 17.3396 3.10118 17.2429 2.92912 17.0709C2.75707 16.8988 2.66041 16.6655 2.66041 16.4221V13.0404L0.268617 10.6486C0.0966215 10.4766 0 10.2433 0 10C0 9.75673 0.0966215 9.52341 0.268617 9.35136L2.66041 6.95957V3.57786C2.66041 3.33453 2.75707 3.10118 2.92912 2.92912C3.10118 2.75707 3.33453 2.66041 3.57786 2.66041H6.95957ZM10 12.7523C10.73 12.7523 11.43 12.4624 11.9462 11.9462C12.4624 11.43 12.7523 10.73 12.7523 10C12.7523 9.27003 12.4624 8.56996 11.9462 8.0538C11.43 7.53763 10.73 7.24765 10 7.24765C9.27003 7.24765 8.56996 7.53763 8.0538 8.0538C7.53763 8.56996 7.24765 9.27003 7.24765 10C7.24765 10.73 7.53763 11.43 8.0538 11.9462C8.56996 12.4624 9.27003 12.7523 10 12.7523Z" fill="black"/>
</svg>
