<svg width="18" height="18" viewBox="0 0 18 18" fill="none" xmlns="http://www.w3.org/2000/svg">
<path d="M6.26362 2.39437L8.41623 0.241755C8.57107 0.0869594 8.78105 0 9 0C9.21895 0 9.42893 0.0869594 9.58377 0.241755L11.7364 2.39437H14.7799C14.9989 2.39437 15.2089 2.48136 15.3638 2.63621C15.5186 2.79106 15.6056 3.00108 15.6056 3.22007V6.26362L17.7582 8.41623C17.913 8.57107 18 8.78105 18 9C18 9.21895 17.913 9.42893 17.7582 9.58377L15.6056 11.7364V14.7799C15.6056 14.9989 15.5186 15.2089 15.3638 15.3638C15.2089 15.5186 14.9989 15.6056 14.7799 15.6056H11.7364L9.58377 17.7582C9.42893 17.913 9.21895 18 9 18C8.78105 18 8.57107 17.913 8.41623 17.7582L6.26362 15.6056H3.22007C3.00108 15.6056 2.79106 15.5186 2.63621 15.3638C2.48136 15.2089 2.39437 14.9989 2.39437 14.7799V11.7364L0.241755 9.58377C0.0869594 9.42893 0 9.21895 0 9C0 8.78105 0.0869594 8.57107 0.241755 8.41623L2.39437 6.26362V3.22007C2.39437 3.00108 2.48136 2.79106 2.63621 2.63621C2.79106 2.48136 3.00108 2.39437 3.22007 2.39437H6.26362ZM9 11.4771C9.65697 11.4771 10.287 11.2161 10.7516 10.7516C11.2161 10.287 11.4771 9.65697 11.4771 9C11.4771 8.34303 11.2161 7.71297 10.7516 7.24842C10.287 6.78387 9.65697 6.52289 9 6.52289C8.34303 6.52289 7.71297 6.78387 7.24842 7.24842C6.78387 7.71297 6.52289 8.34303 6.52289 9C6.52289 9.65697 6.78387 10.287 7.24842 10.7516C7.71297 11.2161 8.34303 11.4771 9 11.4771Z" fill="url(#paint0_linear_749_15)"/>
<defs>
<linearGradient id="paint0_linear_749_15" x1="18" y1="75" x2="18" y2="-26" gradientUnits="userSpaceOnUse">
<stop stop-color="#9E2FFF"/>
<stop offset="1" stop-color="#FF9E2F"/>
</linearGradient>
</defs>
</svg>
