<svg width="20" height="16" viewBox="0 0 20 16" fill="none" xmlns="http://www.w3.org/2000/svg">
<path d="M3.33336 13.1414V9.32973L7.78673 11.9596C8.46026 12.3575 9.22339 12.5669 10.0001 12.5669C10.7768 12.5669 11.5399 12.3575 12.2134 11.9596L16.6668 9.33087V13.1414C16.6669 13.2165 16.6527 13.2909 16.6248 13.3603C16.597 13.4298 16.5561 13.4929 16.5046 13.546L16.5024 13.5472L16.5001 13.5506L16.4924 13.5575L16.4668 13.5826L16.3779 13.6672C16.2693 13.7652 16.1578 13.8597 16.0435 13.9506C15.6444 14.2658 15.2203 14.5461 14.7757 14.7884C13.3052 15.5908 11.6647 16.007 10.0001 15.9999C8.3355 16.007 6.69501 15.5908 5.22449 14.7884C4.78025 14.546 4.35654 14.2658 3.95781 13.9506C3.81119 13.8344 3.66958 13.7116 3.53336 13.5826L3.50781 13.5575C3.45336 13.5035 3.40989 13.4389 3.37994 13.3675C3.34999 13.296 3.33416 13.2192 3.33336 13.1414ZM19.7213 6.20836L11.6601 10.9687C11.155 11.2671 10.5826 11.4241 10.0001 11.4241C9.41757 11.4241 8.84522 11.2671 8.34007 10.9687L1.11112 6.69982V11.9985C1.11112 12.15 1.05259 12.2954 0.948401 12.4026C0.844213 12.5097 0.702904 12.57 0.55556 12.57C0.408217 12.57 0.266908 12.5097 0.16272 12.4026C0.0585321 12.2954 8.54786e-08 12.15 8.54786e-08 11.9985V5.71233C-5.54697e-05 5.60929 0.0269702 5.50816 0.0782168 5.41963C0.129463 5.33111 0.203024 5.25848 0.291114 5.20943L8.34007 0.455951C8.84511 0.157217 9.4175 0 10.0001 0C10.5827 0 11.1551 0.157217 11.6601 0.455951L19.7213 5.21743C19.806 5.26751 19.8764 5.33969 19.9253 5.42668C19.9742 5.51367 20 5.61239 20 5.7129C20 5.8134 19.9742 5.91212 19.9253 5.99911C19.8764 6.0861 19.806 6.15828 19.7213 6.20836Z" fill="url(#paint0_linear_749_10)"/>
<defs>
<linearGradient id="paint0_linear_749_10" x1="20" y1="96.5" x2="20" y2="0" gradientUnits="userSpaceOnUse">
<stop stop-color="#9E2FFF"/>
<stop offset="1" stop-color="#FF9E2F"/>
</linearGradient>
</defs>
</svg>
