<svg width="28" height="20" viewBox="0 0 28 20" fill="none" xmlns="http://www.w3.org/2000/svg">
<path d="M9.47037 20C9.23047 20 9.00557 19.9624 8.79565 19.8872C8.58574 19.8133 8.39082 19.6868 8.2109 19.5078L0.474106 11.8121C0.144243 11.484 -0.0134913 11.0586 0.000902761 10.536C0.0164963 10.0146 0.189224 9.58986 0.519087 9.26174C0.84895 8.93363 1.26878 8.76957 1.77857 8.76957C2.28835 8.76957 2.70818 8.93363 3.03804 9.26174L9.47037 15.66L24.719 0.49217C25.0489 0.164057 25.4765 0 26.0019 0C26.5261 0 26.9531 0.164057 27.283 0.49217C27.6128 0.820283 27.7778 1.24504 27.7778 1.76644C27.7778 2.28904 27.6128 2.71439 27.283 3.04251L10.7299 19.5078C10.5499 19.6868 10.355 19.8133 10.1451 19.8872C9.93518 19.9624 9.71027 20 9.47037 20Z" fill="#FF9E2F"/>
</svg>
